<?xml version="1.0" encoding="UTF-8"?>
<svg xmlns="http://www.w3.org/2000/svg" width="409" height="610" viewBox="0 0 409 610">
<path d="M41,165h81v1h-81zM287,165h80v1h-80zM40,166h84v1h-84zM285,166h84v1h-84zM40,167h84v1h-84zM284,167h85v1h-85zM40,168h85v1h-85zM284,168h85v1h-85zM40,169h85v1h-85zM284,169h85v1h-85zM40,170h86v1h-86zM283,170h86v1h-86zM40,171h86v1h-86zM283,171h86v1h-86zM40,172h87v1h-87zM282,172h87v1h-87zM40,173h87v1h-87zM282,173h87v1h-87zM40,174h88v1h-88zM281,174h88v1h-88zM40,175h88v1h-88zM281,175h88v1h-88zM40,176h89v1h-89zM280,176h89v1h-89zM40,177h89v1h-89zM280,177h89v1h-89zM40,178h90v1h-90zM279,178h90v1h-90zM40,179h90v1h-90zM279,179h90v1h-90zM40,180h91v1h-91zM278,180h91v1h-91zM40,181h91v1h-91zM278,181h91v1h-91zM40,182h92v1h-92zM278,182h91v1h-91zM40,183h92v1h-92zM277,183h92v1h-92zM40,184h92v1h-92zM277,184h92v1h-92zM40,185h93v1h-93zM276,185h93v1h-93zM40,186h93v1h-93zM276,186h93v1h-93zM40,187h94v1h-94zM275,187h94v1h-94zM40,188h94v1h-94zM275,188h94v1h-94zM40,189h95v1h-95zM274,189h95v1h-95zM40,190h95v1h-95zM274,190h95v1h-95zM40,191h96v1h-96zM273,191h96v1h-96zM40,192h96v1h-96zM273,192h96v1h-96zM40,193h97v1h-97zM272,193h97v1h-97zM40,194h97v1h-97zM272,194h97v1h-97zM40,195h98v1h-98zM272,195h97v1h-97zM40,196h98v1h-98zM271,196h98v1h-98zM40,197h99v1h-99zM270,197h99v1h-99zM40,198h99v1h-99zM270,198h99v1h-99zM40,199h100v1h-100zM270,199h99v1h-99zM40,200h100v1h-100zM269,200h100v1h-100zM40,201h101v1h-101zM269,201h100v1h-100zM40,202h101v1h-101zM268,202h101v1h-101zM40,203h102v1h-102zM268,203h101v1h-101zM40,204h102v1h-102zM267,204h102v1h-102zM40,205h102v1h-102zM267,205h102v1h-102zM40,206h103v1h-103zM266,206h103v1h-103zM40,207h103v1h-103zM266,207h103v1h-103zM40,208h104v1h-104zM265,208h104v1h-104zM40,209h104v1h-104zM265,209h104v1h-104zM40,210h105v1h-105zM265,210h104v1h-104zM40,211h105v1h-105zM264,211h105v1h-105zM40,212h106v1h-106zM264,212h105v1h-105zM40,213h106v1h-106zM263,213h106v1h-106zM40,214h106v1h-106zM263,214h106v1h-106zM40,215h107v1h-107zM262,215h107v1h-107zM40,216h107v1h-107zM262,216h107v1h-107zM40,217h108v1h-108zM261,217h108v1h-108zM40,218h108v1h-108zM261,218h108v1h-108zM40,219h109v1h-109zM260,219h109v1h-109zM40,220h109v1h-109zM260,220h109v1h-109zM40,221h110v1h-110zM259,221h110v1h-110zM40,222h110v1h-110zM259,222h110v1h-110zM40,223h111v1h-111zM258,223h111v1h-111zM40,224h111v1h-111zM258,224h111v1h-111zM40,225h112v1h-112zM257,225h112v1h-112zM40,226h112v1h-112zM257,226h112v1h-112zM40,227h112v1h-112zM257,227h112v1h-112zM40,228h113v1h-113zM256,228h113v1h-113zM40,229h114v1h-114zM255,229h114v1h-114zM40,230h114v1h-114zM255,230h114v1h-114zM40,231h114v1h-114zM255,231h114v1h-114zM40,232h115v1h-115zM254,232h115v1h-115zM40,233h115v1h-115zM254,233h115v1h-115zM40,234h116v1h-116zM253,234h116v1h-116zM40,235h116v1h-116zM253,235h116v1h-116zM40,236h117v1h-117zM252,236h117v1h-117zM40,237h117v1h-117zM252,237h117v1h-117zM40,238h118v1h-118zM251,238h118v1h-118zM40,239h118v1h-118zM251,239h118v1h-118zM40,240h119v1h-119zM250,240h119v1h-119zM40,241h119v1h-119zM250,241h119v1h-119zM40,242h119v1h-119zM250,242h119v1h-119zM40,243h120v1h-120zM249,243h120v1h-120zM40,244h120v1h-120zM249,244h120v1h-120zM40,245h121v1h-121zM248,245h121v1h-121zM40,246h121v1h-121zM248,246h121v1h-121zM40,247h122v1h-122zM247,247h122v1h-122zM40,248h122v1h-122zM247,248h122v1h-122zM40,249h123v1h-123zM246,249h123v1h-123zM40,250h123v1h-123zM246,250h123v1h-123zM40,251h124v1h-124zM245,251h124v1h-124zM40,252h124v1h-124zM245,252h124v1h-124zM40,253h125v1h-125zM244,253h125v1h-125zM40,254h125v1h-125zM244,254h125v1h-125zM40,255h126v1h-126zM243,255h126v1h-126zM40,256h126v1h-126zM243,256h126v1h-126zM40,257h127v1h-127zM243,257h126v1h-126zM40,258h127v1h-127zM242,258h127v1h-127zM40,259h128v1h-128zM242,259h127v1h-127zM40,260h128v1h-128zM241,260h128v1h-128zM40,261h63v1h-63zM104,261h64v1h-64zM241,261h64v1h-64zM307,261h62v1h-62zM40,262h62v1h-62zM105,262h64v1h-64zM240,262h65v1h-65zM307,262h62v1h-62zM40,263h62v1h-62zM105,263h64v1h-64zM239,263h65v1h-65zM307,263h62v1h-62zM40,264h63v1h-63zM105,264h65v1h-65zM231,264h73v1h-73zM307,264h62v1h-62zM40,265h62v1h-62zM106,265h64v1h-64zM220,265h84v1h-84zM307,265h62v1h-62zM40,266h62v1h-62zM106,266h65v1h-65zM214,266h89v1h-89zM307,266h62v1h-62zM40,267h62v1h-62zM107,267h64v1h-64zM206,267h97v1h-97zM307,267h62v1h-62zM40,268h63v1h-63zM107,268h65v1h-65zM200,268h102v1h-102zM307,268h62v1h-62zM40,269h63v1h-63zM107,269h65v1h-65zM194,269h37v1h-37zM237,269h65v1h-65zM307,269h62v1h-62zM40,270h63v1h-63zM108,270h65v1h-65zM190,270h30v1h-30zM236,270h66v1h-66zM307,270h62v1h-62zM40,271h63v1h-63zM108,271h65v1h-65zM186,271h28v1h-28zM236,271h65v1h-65zM307,271h62v1h-62zM40,272h63v1h-63zM108,272h66v1h-66zM182,272h27v1h-27zM235,272h66v1h-66zM307,272h62v1h-62zM40,273h63v1h-63zM109,273h65v1h-65zM179,273h24v1h-24zM235,273h65v1h-65zM307,273h62v1h-62zM40,274h63v1h-63zM109,274h90v1h-90zM227,274h2v1h-2zM234,274h66v1h-66zM307,274h62v1h-62zM40,275h63v1h-63zM110,275h85v1h-85zM234,275h66v1h-66zM307,275h62v1h-62zM40,276h63v1h-63zM110,276h80v1h-80zM233,276h66v1h-66zM307,276h62v1h-62zM40,277h63v1h-63zM110,277h77v1h-77zM213,277h3v1h-3zM233,277h66v1h-66zM307,277h62v1h-62zM40,278h63v1h-63zM111,278h72v1h-72zM210,278h2v1h-2zM232,278h66v1h-66zM307,278h62v1h-62zM40,279h63v1h-63zM111,279h69v1h-69zM207,279h3v1h-3zM232,279h66v1h-66zM307,279h62v1h-62zM40,280h63v1h-63zM112,280h66v1h-66zM204,280h3v1h-3zM230,280h68v1h-68zM307,280h62v1h-62zM40,281h63v1h-63zM112,281h63v1h-63zM202,281h3v1h-3zM228,281h69v1h-69zM307,281h62v1h-62zM40,282h63v1h-63zM112,282h61v1h-61zM199,282h3v1h-3zM225,282h72v1h-72zM307,282h62v1h-62zM40,283h63v1h-63zM113,283h57v1h-57zM197,283h3v1h-3zM224,283h73v1h-73zM307,283h62v1h-62zM40,284h62v1h-62zM113,284h55v1h-55zM196,284h2v1h-2zM222,284h74v1h-74zM307,284h62v1h-62zM40,285h62v1h-62zM114,285h52v1h-52zM220,285h76v1h-76zM307,285h62v1h-62zM40,286h62v1h-62zM114,286h50v1h-50zM219,286h76v1h-76zM307,286h62v1h-62zM40,287h62v1h-62zM114,287h48v1h-48zM218,287h77v1h-77zM307,287h62v1h-62zM40,288h62v1h-62zM115,288h46v1h-46zM217,288h77v1h-77zM307,288h62v1h-62zM40,289h62v1h-62zM115,289h44v1h-44zM216,289h78v1h-78zM307,289h62v1h-62zM40,290h62v1h-62zM116,290h42v1h-42zM187,290h2v1h-2zM215,290h79v1h-79zM307,290h62v1h-62zM40,291h62v1h-62zM116,291h41v1h-41zM186,291h3v1h-3zM215,291h78v1h-78zM307,291h62v1h-62zM40,292h62v1h-62zM116,292h40v1h-40zM185,292h3v1h-3zM214,292h79v1h-79zM307,292h62v1h-62zM40,293h62v1h-62zM117,293h38v1h-38zM184,293h3v1h-3zM214,293h78v1h-78zM307,293h62v1h-62zM40,294h62v1h-62zM117,294h37v1h-37zM183,294h3v1h-3zM213,294h79v1h-79zM307,294h62v1h-62zM40,295h62v1h-62zM118,295h35v1h-35zM182,295h4v1h-4zM213,295h79v1h-79zM307,295h62v1h-62zM40,296h62v1h-62zM118,296h34v1h-34zM182,296h3v1h-3zM213,296h78v1h-78zM307,296h62v1h-62zM40,297h62v1h-62zM119,297h32v1h-32zM181,297h4v1h-4zM213,297h78v1h-78zM307,297h62v1h-62zM40,298h62v1h-62zM119,298h32v1h-32zM181,298h3v1h-3zM213,298h77v1h-77zM307,298h62v1h-62zM40,299h62v1h-62zM119,299h31v1h-31zM180,299h4v1h-4zM213,299h77v1h-77zM307,299h62v1h-62zM40,300h62v1h-62zM120,300h30v1h-30zM180,300h4v1h-4zM213,300h76v1h-76zM307,300h62v1h-62zM40,301h62v1h-62zM120,301h29v1h-29zM180,301h4v1h-4zM214,301h75v1h-75zM307,301h62v1h-62zM40,302h62v1h-62zM121,302h28v1h-28zM180,302h3v1h-3zM214,302h75v1h-75zM307,302h62v1h-62zM40,303h62v1h-62zM121,303h27v1h-27zM179,303h4v1h-4zM214,303h74v1h-74zM307,303h62v1h-62zM40,304h62v1h-62zM121,304h27v1h-27zM179,304h4v1h-4zM215,304h73v1h-73zM307,304h62v1h-62zM40,305h62v1h-62zM122,305h26v1h-26zM179,305h5v1h-5zM215,305h72v1h-72zM307,305h62v1h-62zM40,306h62v1h-62zM122,306h26v1h-26zM179,306h5v1h-5zM216,306h71v1h-71zM307,306h62v1h-62zM40,307h62v1h-62zM123,307h25v1h-25zM180,307h4v1h-4zM216,307h70v1h-70zM307,307h62v1h-62zM40,308h62v1h-62zM123,308h24v1h-24zM217,308h69v1h-69zM307,308h62v1h-62zM40,309h62v1h-62zM124,309h23v1h-23zM218,309h68v1h-68zM307,309h62v1h-62zM40,310h62v1h-62zM124,310h23v1h-23zM218,310h67v1h-67zM307,310h62v1h-62zM40,311h62v1h-62zM124,311h23v1h-23zM219,311h66v1h-66zM307,311h62v1h-62zM40,312h62v1h-62zM125,312h22v1h-22zM220,312h64v1h-64zM307,312h62v1h-62zM40,313h62v1h-62zM125,313h22v1h-22zM220,313h64v1h-64zM307,313h62v1h-62zM40,314h62v1h-62zM125,314h22v1h-22zM221,314h63v1h-63zM307,314h62v1h-62zM40,315h62v1h-62zM126,315h21v1h-21zM222,315h61v1h-61zM307,315h62v1h-62zM40,316h62v1h-62zM126,316h21v1h-21zM223,316h60v1h-60zM307,316h62v1h-62zM40,317h62v1h-62zM127,317h21v1h-21zM224,317h58v1h-58zM307,317h62v1h-62zM40,318h62v1h-62zM127,318h21v1h-21zM225,318h57v1h-57zM307,318h62v1h-62zM40,319h62v1h-62zM127,319h21v1h-21zM225,319h57v1h-57zM307,319h62v1h-62zM40,320h62v1h-62zM128,320h20v1h-20zM226,320h55v1h-55zM307,320h62v1h-62zM40,321h62v1h-62zM128,321h20v1h-20zM184,321h5v1h-5zM227,321h54v1h-54zM307,321h62v1h-62zM40,322h62v1h-62zM129,322h19v1h-19zM184,322h6v1h-6zM228,322h52v1h-52zM307,322h62v1h-62zM40,323h62v1h-62zM129,323h19v1h-19zM185,323h5v1h-5zM229,323h51v1h-51zM307,323h62v1h-62zM40,324h62v1h-62zM130,324h18v1h-18zM185,324h6v1h-6zM230,324h50v1h-50zM307,324h62v1h-62zM40,325h62v1h-62zM130,325h18v1h-18zM186,325h5v1h-5zM231,325h48v1h-48zM307,325h62v1h-62zM40,326h62v1h-62zM130,326h18v1h-18zM186,326h6v1h-6zM231,326h48v1h-48zM307,326h62v1h-62zM40,327h62v1h-62zM131,327h17v1h-17zM186,327h6v1h-6zM232,327h46v1h-46zM307,327h62v1h-62zM40,328h62v1h-62zM131,328h18v1h-18zM187,328h6v1h-6zM233,328h45v1h-45zM307,328h62v1h-62zM40,329h62v1h-62zM132,329h17v1h-17zM187,329h6v1h-6zM233,329h45v1h-45zM307,329h62v1h-62zM40,330h62v1h-62zM132,330h17v1h-17zM187,330h7v1h-7zM234,330h43v1h-43zM307,330h62v1h-62zM40,331h62v1h-62zM132,331h17v1h-17zM188,331h6v1h-6zM235,331h42v1h-42zM307,331h62v1h-62zM40,332h62v1h-62zM133,332h16v1h-16zM188,332h6v1h-6zM236,332h40v1h-40zM307,332h62v1h-62zM40,333h62v1h-62zM133,333h16v1h-16zM188,333h7v1h-7zM237,333h39v1h-39zM307,333h62v1h-62zM40,334h62v1h-62zM134,334h15v1h-15zM188,334h7v1h-7zM237,334h39v1h-39zM307,334h62v1h-62zM40,335h62v1h-62zM134,335h15v1h-15zM189,335h6v1h-6zM238,335h37v1h-37zM307,335h62v1h-62zM40,336h62v1h-62zM135,336h14v1h-14zM189,336h7v1h-7zM239,336h36v1h-36zM307,336h62v1h-62zM40,337h62v1h-62zM135,337h14v1h-14zM189,337h7v1h-7zM240,337h34v1h-34zM307,337h62v1h-62zM40,338h62v1h-62zM135,338h14v1h-14zM189,338h7v1h-7zM241,338h33v1h-33zM307,338h62v1h-62zM40,339h62v1h-62zM136,339h13v1h-13zM190,339h7v1h-7zM241,339h33v1h-33zM307,339h62v1h-62zM40,340h62v1h-62zM136,340h13v1h-13zM190,340h7v1h-7zM242,340h31v1h-31zM307,340h62v1h-62zM40,341h62v1h-62zM137,341h12v1h-12zM190,341h8v1h-8zM243,341h30v1h-30zM307,341h62v1h-62zM40,342h62v1h-62zM137,342h12v1h-12zM190,342h8v1h-8zM244,342h28v1h-28zM307,342h62v1h-62zM40,343h62v1h-62zM137,343h12v1h-12zM191,343h7v1h-7zM244,343h28v1h-28zM307,343h62v1h-62zM40,344h62v1h-62zM138,344h11v1h-11zM191,344h8v1h-8zM245,344h26v1h-26zM307,344h62v1h-62zM40,345h62v1h-62zM138,345h11v1h-11zM191,345h8v1h-8zM246,345h25v1h-25zM307,345h62v1h-62zM40,346h62v1h-62zM139,346h10v1h-10zM191,346h8v1h-8zM247,346h24v1h-24zM307,346h62v1h-62zM40,347h62v1h-62zM139,347h10v1h-10zM191,347h8v1h-8zM247,347h23v1h-23zM307,347h62v1h-62zM40,348h62v1h-62zM140,348h9v1h-9zM191,348h9v1h-9zM248,348h22v1h-22zM307,348h62v1h-62zM40,349h62v1h-62zM140,349h9v1h-9zM192,349h8v1h-8zM249,349h20v1h-20zM307,349h62v1h-62zM40,350h62v1h-62zM140,350h9v1h-9zM192,350h8v1h-8zM249,350h20v1h-20zM307,350h62v1h-62zM40,351h62v1h-62zM141,351h7v1h-7zM192,351h9v1h-9zM250,351h18v1h-18zM307,351h62v1h-62zM40,352h62v1h-62zM141,352h7v1h-7zM192,352h9v1h-9zM251,352h17v1h-17zM307,352h62v1h-62zM40,353h62v1h-62zM141,353h7v1h-7zM192,353h9v1h-9zM251,353h17v1h-17zM307,353h62v1h-62zM40,354h62v1h-62zM140,354h8v1h-8zM193,354h8v1h-8zM252,354h15v1h-15zM307,354h62v1h-62zM40,355h62v1h-62zM140,355h8v1h-8zM193,355h9v1h-9zM253,355h14v1h-14zM307,355h62v1h-62zM40,356h62v1h-62zM140,356h8v1h-8zM193,356h8v1h-8zM253,356h13v1h-13zM307,356h62v1h-62zM40,357h62v1h-62zM140,357h8v1h-8zM254,357h12v1h-12zM307,357h62v1h-62zM40,358h62v1h-62zM139,358h8v1h-8zM255,358h12v1h-12zM307,358h62v1h-62zM40,359h62v1h-62zM139,359h8v1h-8zM255,359h12v1h-12zM307,359h62v1h-62zM40,360h62v1h-62zM138,360h9v1h-9zM256,360h12v1h-12zM307,360h62v1h-62zM40,361h62v1h-62zM138,361h8v1h-8zM257,361h12v1h-12zM307,361h62v1h-62zM40,362h62v1h-62zM138,362h8v1h-8zM257,362h12v1h-12zM307,362h62v1h-62zM40,363h62v1h-62zM137,363h9v1h-9zM258,363h12v1h-12zM307,363h62v1h-62zM40,364h62v1h-62zM137,364h8v1h-8zM259,364h12v1h-12zM307,364h62v1h-62zM40,365h62v1h-62zM136,365h9v1h-9zM259,365h12v1h-12zM307,365h62v1h-62zM40,366h62v1h-62zM136,366h9v1h-9zM260,366h12v1h-12zM307,366h62v1h-62zM40,367h62v1h-62zM136,367h8v1h-8zM261,367h11v1h-11zM307,367h62v1h-62zM40,368h62v1h-62zM135,368h9v1h-9zM261,368h12v1h-12zM307,368h62v1h-62zM40,369h62v1h-62zM135,369h9v1h-9zM262,369h12v1h-12zM307,369h62v1h-62zM40,370h62v1h-62zM134,370h10v1h-10zM262,370h12v1h-12zM307,370h62v1h-62zM40,371h62v1h-62zM134,371h9v1h-9zM263,371h12v1h-12zM307,371h62v1h-62zM40,372h62v1h-62zM133,372h10v1h-10zM263,372h13v1h-13zM307,372h62v1h-62zM40,373h62v1h-62zM133,373h10v1h-10zM264,373h12v1h-12zM307,373h62v1h-62zM40,374h62v1h-62zM132,374h10v1h-10zM265,374h12v1h-12zM307,374h62v1h-62zM40,375h62v1h-62zM132,375h10v1h-10zM265,375h12v1h-12zM307,375h62v1h-62zM40,376h62v1h-62zM131,376h11v1h-11zM266,376h12v1h-12zM307,376h62v1h-62zM40,377h62v1h-62zM130,377h11v1h-11zM266,377h13v1h-13zM307,377h62v1h-62zM40,378h62v1h-62zM130,378h11v1h-11zM267,378h12v1h-12zM307,378h62v1h-62zM40,379h62v1h-62zM129,379h11v1h-11zM267,379h13v1h-13zM307,379h62v1h-62zM40,380h62v1h-62zM129,380h11v1h-11zM268,380h12v1h-12zM307,380h62v1h-62zM40,381h62v1h-62zM128,381h12v1h-12zM268,381h13v1h-13zM307,381h62v1h-62zM40,382h62v1h-62zM127,382h12v1h-12zM269,382h13v1h-13zM307,382h62v1h-62zM40,383h62v1h-62zM127,383h12v1h-12zM270,383h13v1h-13zM307,383h62v1h-62zM40,384h62v1h-62zM126,384h12v1h-12zM194,384h14v1h-14zM270,384h13v1h-13zM307,384h62v1h-62zM40,385h62v1h-62zM126,385h12v1h-12zM194,385h14v1h-14zM271,385h13v1h-13zM307,385h62v1h-62zM40,386h62v1h-62zM125,386h12v1h-12zM194,386h14v1h-14zM271,386h13v1h-13zM307,386h62v1h-62zM40,387h62v1h-62zM124,387h13v1h-13zM194,387h14v1h-14zM272,387h13v1h-13zM307,387h62v1h-62zM40,388h62v1h-62zM124,388h13v1h-13zM194,388h14v1h-14zM272,388h13v1h-13zM307,388h62v1h-62zM40,389h62v1h-62zM123,389h13v1h-13zM194,389h15v1h-15zM273,389h13v1h-13zM307,389h62v1h-62zM40,390h62v1h-62zM123,390h13v1h-13zM194,390h15v1h-15zM273,390h14v1h-14zM307,390h62v1h-62zM40,391h62v1h-62zM122,391h13v1h-13zM194,391h15v1h-15zM274,391h13v1h-13zM307,391h62v1h-62zM40,392h62v1h-62zM121,392h14v1h-14zM194,392h15v1h-15zM274,392h14v1h-14zM307,392h62v1h-62zM40,393h62v1h-62zM121,393h13v1h-13zM194,393h15v1h-15zM275,393h13v1h-13zM307,393h62v1h-62zM40,394h62v1h-62zM120,394h14v1h-14zM194,394h15v1h-15zM276,394h13v1h-13zM307,394h62v1h-62zM40,395h62v1h-62zM119,395h14v1h-14zM194,395h15v1h-15zM276,395h14v1h-14zM307,395h62v1h-62zM40,396h62v1h-62zM119,396h14v1h-14zM194,396h15v1h-15zM277,396h13v1h-13zM307,396h62v1h-62zM40,397h62v1h-62zM118,397h15v1h-15zM194,397h16v1h-16zM277,397h14v1h-14zM307,397h62v1h-62zM40,398h62v1h-62zM118,398h14v1h-14zM194,398h16v1h-16zM278,398h14v1h-14zM307,398h62v1h-62zM40,399h62v1h-62zM117,399h15v1h-15zM194,399h16v1h-16zM278,399h14v1h-14zM307,399h62v1h-62zM40,400h62v1h-62zM116,400h15v1h-15zM194,400h16v1h-16zM279,400h14v1h-14zM307,400h62v1h-62zM40,401h62v1h-62zM115,401h16v1h-16zM194,401h16v1h-16zM279,401h15v1h-15zM307,401h62v1h-62zM40,402h62v1h-62zM115,402h15v1h-15zM194,402h16v1h-16zM280,402h14v1h-14zM307,402h62v1h-62zM40,403h62v1h-62zM114,403h15v1h-15zM194,403h16v1h-16zM280,403h15v1h-15zM307,403h62v1h-62zM40,404h63v1h-63zM114,404h15v1h-15zM194,404h17v1h-17zM281,404h15v1h-15zM307,404h62v1h-62zM40,405h63v1h-63zM113,405h15v1h-15zM194,405h17v1h-17zM281,405h15v1h-15zM307,405h62v1h-62zM40,406h63v1h-63zM112,406h16v1h-16zM194,406h17v1h-17zM282,406h15v1h-15zM307,406h62v1h-62zM40,407h63v1h-63zM112,407h16v1h-16zM194,407h17v1h-17zM282,407h15v1h-15zM307,407h62v1h-62zM40,408h63v1h-63zM111,408h16v1h-16zM194,408h17v1h-17zM283,408h15v1h-15zM307,408h62v1h-62zM40,409h63v1h-63zM110,409h16v1h-16zM194,409h17v1h-17zM283,409h16v1h-16zM307,409h62v1h-62zM40,410h63v1h-63zM110,410h16v1h-16zM194,410h17v1h-17zM284,410h15v1h-15zM307,410h62v1h-62zM40,411h63v1h-63zM109,411h16v1h-16zM193,411h18v1h-18zM284,411h16v1h-16zM307,411h62v1h-62zM40,412h63v1h-63zM109,412h16v1h-16zM193,412h19v1h-19zM285,412h16v1h-16zM307,412h62v1h-62zM40,413h62v1h-62zM108,413h16v1h-16zM193,413h19v1h-19zM285,413h16v1h-16zM307,413h62v1h-62zM40,414h62v1h-62zM107,414h17v1h-17zM193,414h19v1h-19zM286,414h16v1h-16zM307,414h62v1h-62zM40,415h62v1h-62zM107,415h17v1h-17zM193,415h19v1h-19zM286,415h16v1h-16zM307,415h62v1h-62zM40,416h62v1h-62zM106,416h17v1h-17zM193,416h19v1h-19zM287,416h16v1h-16zM307,416h62v1h-62zM40,417h63v1h-63zM106,417h17v1h-17zM193,417h19v1h-19zM287,417h16v1h-16zM307,417h62v1h-62zM40,418h63v1h-63zM105,418h17v1h-17zM193,418h19v1h-19zM288,418h16v1h-16zM307,418h62v1h-62zM40,419h63v1h-63zM104,419h18v1h-18zM193,419h19v1h-19zM288,419h17v1h-17zM307,419h62v1h-62zM40,420h81v1h-81zM193,420h19v1h-19zM289,420h80v1h-80zM40,421h81v1h-81zM193,421h19v1h-19zM289,421h80v1h-80zM40,422h80v1h-80zM193,422h19v1h-19zM290,422h79v1h-79zM40,423h79v1h-79zM193,423h20v1h-20zM290,423h79v1h-79zM40,424h79v1h-79zM192,424h21v1h-21zM291,424h78v1h-78zM40,425h78v1h-78zM192,425h21v1h-21zM292,425h77v1h-77zM40,426h78v1h-78zM192,426h21v1h-21zM292,426h77v1h-77zM40,427h77v1h-77zM192,427h21v1h-21zM293,427h76v1h-76zM40,428h76v1h-76zM192,428h21v1h-21zM293,428h76v1h-76zM40,429h76v1h-76zM192,429h21v1h-21zM293,429h76v1h-76zM40,430h75v1h-75zM192,430h21v1h-21zM294,430h75v1h-75zM40,431h75v1h-75zM192,431h21v1h-21zM294,431h75v1h-75zM40,432h74v1h-74zM192,432h21v1h-21zM295,432h74v1h-74zM40,433h74v1h-74zM192,433h21v1h-21zM295,433h74v1h-74zM40,434h73v1h-73zM192,434h21v1h-21zM296,434h73v1h-73zM40,435h72v1h-72zM191,435h22v1h-22zM296,435h73v1h-73zM40,436h72v1h-72zM191,436h22v1h-22zM297,436h72v1h-72zM40,437h71v1h-71zM191,437h23v1h-23zM297,437h72v1h-72zM40,438h71v1h-71zM191,438h23v1h-23zM298,438h71v1h-71zM40,439h70v1h-70zM191,439h23v1h-23zM298,439h71v1h-71zM40,440h69v1h-69zM191,440h23v1h-23zM299,440h70v1h-70zM40,441h69v1h-69zM191,441h23v1h-23zM299,441h70v1h-70zM40,442h68v1h-68zM191,442h23v1h-23zM300,442h69v1h-69zM40,443h68v1h-68zM191,443h23v1h-23zM300,443h69v1h-69zM40,444h67v1h-67zM191,444h23v1h-23zM301,444h68v1h-68zM51,445h12v1h-12zM67,445h2v1h-2zM192,445h6v1h-6zM201,445h9v1h-9zM318,445h22v1h-22zM342,445h2v1h-2z" fill="#000"/>
</svg>